<mxfile host="app.diagrams.net" modified="2023-03-12T19:50:10.410Z" agent="5.0 (Windows NT 10.0; Win64; x64) AppleWebKit/537.36 (KHTML, like Gecko) Chrome/110.0.0.0 Safari/537.36" etag="mMcj7f-W-yXBK57QtY1u" version="21.0.6" type="github">
  <diagram name="Page-1" id="iM3VnT9SyAMWZlAbuz2z">
    <mxGraphModel dx="474" dy="773" grid="1" gridSize="10" guides="1" tooltips="1" connect="1" arrows="1" fold="1" page="1" pageScale="1" pageWidth="850" pageHeight="1100" math="0" shadow="0">
      <root>
        <mxCell id="0" />
        <mxCell id="1" parent="0" />
        <mxCell id="nQNH612VHkfuGx5EY-RF-2" value="Comment" style="swimlane;fontStyle=1;align=center;verticalAlign=top;childLayout=stackLayout;horizontal=1;startSize=26;horizontalStack=0;resizeParent=1;resizeParentMax=0;resizeLast=0;collapsible=1;marginBottom=0;whiteSpace=wrap;html=1;" vertex="1" parent="1">
          <mxGeometry x="120" y="110" width="160" height="78" as="geometry" />
        </mxCell>
        <mxCell id="nQNH612VHkfuGx5EY-RF-3" value="-player: Player&lt;br&gt;-qrCode: QrCode&lt;br&gt;-message: String" style="text;strokeColor=none;fillColor=none;align=left;verticalAlign=top;spacingLeft=4;spacingRight=4;overflow=hidden;rotatable=0;points=[[0,0.5],[1,0.5]];portConstraint=eastwest;whiteSpace=wrap;html=1;" vertex="1" parent="nQNH612VHkfuGx5EY-RF-2">
          <mxGeometry y="26" width="160" height="44" as="geometry" />
        </mxCell>
        <mxCell id="nQNH612VHkfuGx5EY-RF-4" value="" style="line;strokeWidth=1;fillColor=none;align=left;verticalAlign=middle;spacingTop=-1;spacingLeft=3;spacingRight=3;rotatable=0;labelPosition=right;points=[];portConstraint=eastwest;strokeColor=inherit;" vertex="1" parent="nQNH612VHkfuGx5EY-RF-2">
          <mxGeometry y="70" width="160" height="8" as="geometry" />
        </mxCell>
        <mxCell id="nQNH612VHkfuGx5EY-RF-6" value="Leaderboard" style="swimlane;fontStyle=1;align=center;verticalAlign=top;childLayout=stackLayout;horizontal=1;startSize=26;horizontalStack=0;resizeParent=1;resizeParentMax=0;resizeLast=0;collapsible=1;marginBottom=0;whiteSpace=wrap;html=1;" vertex="1" parent="1">
          <mxGeometry x="280" y="330" width="250" height="314" as="geometry" />
        </mxCell>
        <mxCell id="nQNH612VHkfuGx5EY-RF-7" value="&lt;br&gt;-maxQrPlayer:String&lt;br&gt;&lt;br&gt;-maxQr: long&lt;br&gt;&lt;br&gt;-maxScore:long&lt;br&gt;&lt;br&gt;-players:ArrayList&amp;lt;LeaderboardPlayer&amp;gt;&lt;br&gt;&lt;br&gt;-byScore: ArrayList&amp;lt;LeaderboardPlayer&amp;gt;&lt;br&gt;&lt;br&gt;-byHighestScoringQR: Arraylist&amp;lt;LeaderboardPlayer&amp;gt;" style="text;strokeColor=none;fillColor=none;align=left;verticalAlign=top;spacingLeft=4;spacingRight=4;overflow=hidden;rotatable=0;points=[[0,0.5],[1,0.5]];portConstraint=eastwest;whiteSpace=wrap;html=1;" vertex="1" parent="nQNH612VHkfuGx5EY-RF-6">
          <mxGeometry y="26" width="250" height="254" as="geometry" />
        </mxCell>
        <mxCell id="nQNH612VHkfuGx5EY-RF-8" value="" style="line;strokeWidth=1;fillColor=none;align=left;verticalAlign=middle;spacingTop=-1;spacingLeft=3;spacingRight=3;rotatable=0;labelPosition=right;points=[];portConstraint=eastwest;strokeColor=inherit;" vertex="1" parent="nQNH612VHkfuGx5EY-RF-6">
          <mxGeometry y="280" width="250" height="8" as="geometry" />
        </mxCell>
        <mxCell id="nQNH612VHkfuGx5EY-RF-9" value="+ method(type): type" style="text;strokeColor=none;fillColor=none;align=left;verticalAlign=top;spacingLeft=4;spacingRight=4;overflow=hidden;rotatable=0;points=[[0,0.5],[1,0.5]];portConstraint=eastwest;whiteSpace=wrap;html=1;" vertex="1" parent="nQNH612VHkfuGx5EY-RF-6">
          <mxGeometry y="288" width="250" height="26" as="geometry" />
        </mxCell>
      </root>
    </mxGraphModel>
  </diagram>
</mxfile>
